<svg width="229" height="364" viewBox="0 0 229 364" fill="none" xmlns="http://www.w3.org/2000/svg">
    <path
        d="M152.076 22.033C166.245 7.20405 189.625 6.29477 204.903 19.9785L205.828 20.8065C221.793 35.1059 222.78 59.7721 208.009 75.302L76.848 213.198C62.1275 228.675 37.5471 228.982 22.4439 213.879L21.2605 212.696C6.65879 198.094 6.3904 174.504 20.6561 159.574L152.076 22.033Z"
        fill="#5CC8F8" />
    <path
        d="M103.1 239.543C88.4008 254.362 88.4049 278.262 103.109 293.075L153.045 343.382C166.407 356.844 188.269 356.541 201.254 342.715V342.715C214.044 329.095 213.226 307.647 199.435 295.041L168.005 266.314L202.007 230.291C214.328 217.238 213.438 196.589 200.041 184.645V184.645C187.4 173.374 168.15 173.965 156.223 185.988L103.1 239.543Z"
        fill="#16B9FD" />
    <path
        d="M152.674 182.467C166.472 168.557 188.743 167.874 203.368 180.913C218.868 194.732 219.898 218.622 205.643 233.723L175.129 266.05L202.808 291.351C218.657 305.837 219.597 330.486 204.898 346.137C189.976 362.026 164.853 362.375 149.497 346.905L99.5604 296.597C82.9217 279.835 82.9168 252.79 99.5497 236.022L152.674 182.467ZM148.461 18.5787C164.494 1.79863 190.951 0.769479 208.239 16.2535L209.164 17.0817C227.23 33.2626 228.347 61.1745 211.632 78.7477L80.4706 216.644C63.8131 234.157 35.9986 234.505 18.9081 217.415L17.7245 216.231C1.20188 199.708 0.898276 173.014 17.0409 156.12L148.461 18.5787Z"
        stroke="white" stroke-width="10" />
</svg>